<?xml version="1.0" encoding="UTF-8" standalone="no"?>
<svg width="159px" height="94px" viewBox="0 0 159 94" version="1.1" xmlns="http://www.w3.org/2000/svg" xmlns:xlink="http://www.w3.org/1999/xlink">
    <!-- Generator: Sketch 40 (33762) - http://www.bohemiancoding.com/sketch -->
    <title>Artboard</title>
    <desc>Created with Sketch.</desc>
    <defs></defs>
    <g id="Page-1" stroke="none" stroke-width="1" fill="none" fill-rule="evenodd">
        <g id="Artboard">
            <g id="Group" transform="translate(12.748571, 20.000000)">
                <path d="M47.6313328,26.4867434 C47.6313328,25.0081876 48.8127454,23.8267751 50.3396317,23.8267751 C51.8235575,23.8267751 53.00676,25.0081876 53.00676,26.4419929 C53.00676,27.9688791 51.8235575,29.1502917 50.3396317,29.1502917 C48.8127454,29.1502917 47.6313328,27.9688791 47.6313328,26.4867434 L47.6313328,26.4867434 Z" id="Fill-2" fill="#222221"></path>
                <path d="M0.164323749,12.3135516 C0.164323749,14.3094228 0.567078034,16.1656725 1.30814592,17.7713196 L5.62209182,17.7713196 C4.6894919,16.0654315 4.20618676,13.9084585 4.20618676,11.4704526" id="Fill-4" fill="#FFFFFF"></path>
                <path d="M4.20582875,11.4709896 C4.20582875,4.57046616 7.56390449,0.870496792 11.4571959,0.870496792 C13.6768195,0.870496792 15.0068037,1.60798464 15.8445326,2.54953466 C15.1571653,2.93975881 14.2693158,3.77927774 14.2693158,5.16117245 C14.2693158,6.58960765 15.3039468,7.57590814 16.7359621,7.57590814 C18.1124867,7.57590814 19.0987872,6.5376971 19.0987872,5.01081085 C19.0987872,2.78939721 16.2437068,0.177759421 11.4571959,0.177759421 C5.39261138,0.177759421 0.163965745,5.40819508 0.163965745,12.3140886" id="Fill-6" fill="#FFFFFF"></path>
                <path d="M27.1386578,11.8660468 C27.1386578,3.72683019 29.7592457,0.818049234 33.7456181,0.818049234 C37.8429717,0.818049234 40.8000832,3.77874074 40.8000832,11.9143773 C40.8000832,14.2986827 40.5691707,16.2301132 40.1538863,17.7748997 L43.506592,17.7748997 C44.4660422,16.0475313 45.0442183,14.0373399 45.0442183,11.8212963 C45.0442183,4.91540283 39.8621132,0.179012434 33.9944307,0.179012434 C28.3719809,0.179012434 22.9464332,5.11230493 22.9464332,11.9680779 C22.9464332,14.139371 23.4583786,16.1030219 24.340858,17.7748997 L27.8850957,17.7748997 C27.4071606,16.2157931 27.1386578,14.2754124 27.1386578,11.8660468" id="Fill-8" fill="#FFFFFF"></path>
                <path d="M104.789147,0.870675794 C108.983162,0.870675794 110.409807,4.32183252 110.114454,9.60059869 L98.5258704,9.60059869 C98.9715852,3.87790779 101.237749,0.870675794 104.789147,0.870675794 M98.4274194,11.8667628 L98.4274194,11.8202223 C98.4274194,11.2778465 98.4274194,10.7820113 98.4757499,10.2396355 L114.161687,10.2396355 C114.50537,4.86241827 111.197415,0.181518461 104.986049,0.181518461 C99.2150277,0.181518461 94.3783963,5.65360669 94.3783963,12.2086564 C94.3783963,14.2814985 94.8080009,16.1592285 95.570549,17.7702456 L99.612412,17.7702456 C98.8373337,16.1484884 98.4274194,14.138297 98.4274194,11.8667628" id="Fill-10" fill="#FFFFFF"></path>
                <path d="M59.9062095,7.27912299 C61.3883452,4.32201152 63.5578483,2.24737944 65.9761641,2.24737944 C68.981606,2.24737944 70.1182681,4.42225259 70.1182681,8.06852139 L70.1182681,17.7704246 L73.866568,17.7704246 L73.866568,6.8387783 C75.4954853,3.92999735 77.7634395,2.24737944 79.9293625,2.24737944 C82.9383845,2.24737944 84.0249261,4.42225259 84.0249261,8.06852139 L84.0249261,17.7704246 L87.771436,17.7704246 L87.771436,6.93364931 C87.771436,2.64297365 85.703964,0.276568472 82.0505351,0.276568472 C78.8947315,0.276568472 75.9877406,2.44428154 73.8128674,5.84889777 C73.4745538,2.15429845 71.3515913,0.276568472 68.0973366,0.276568472 C64.7911714,0.276568472 61.928931,2.64297365 59.861459,6.19616146 L59.861459,0.475260587 L52.3594892,0.720493196 L52.3594892,1.11608741 C55.6173238,1.31119948 56.1596996,2.00393685 56.1596996,3.5308231 L56.1596996,17.7704246 L59.9062095,17.7704246 L59.9062095,7.27912299 Z" id="Fill-12" fill="#FFFFFF"></path>
                <path d="M60.1090186,40.4223997 C61.3495018,40.4223997 62.4342534,39.9462546 63.3256828,39.0136547 L63.4259239,38.9152036 L63.0267497,38.5410896 L62.9265086,38.6467008 C62.3948729,39.2195069 61.4765932,39.9015041 60.1179687,39.9015041 C58.1489478,39.9015041 56.6041613,38.2546866 56.6041613,36.133514 C56.6041613,34.0320317 58.1489478,32.3852141 60.1179687,32.3852141 C61.4962834,32.3852141 62.2695716,32.9472801 62.8996583,33.5558866 L63.0016894,33.6579177 L63.3829635,33.2766436 L63.2719823,33.1746125 C62.5774549,32.5140955 61.7683663,31.8678986 60.1394489,31.8678986 C57.8535946,31.8678986 56.0599955,33.7456286 56.0599955,36.1675244 C56.0599955,38.5518298 57.8374844,40.4223997 60.1090186,40.4223997" id="Fill-14" fill="#FFFFFF"></path>
                <path d="M65.2359912,32.5210766 L68.0857015,32.5210766 C69.6662883,32.5210766 70.572038,33.2066539 70.572038,34.4202868 C70.572038,35.5873792 69.6054277,36.2872767 67.9800904,36.2872767 L65.2359912,36.2872767 L65.2359912,32.5210766 Z M71.1162037,34.4095467 L71.1162037,34.3880665 C71.1162037,33.7508197 70.9049815,33.2030738 70.5004372,32.7967395 C69.9777516,32.2686839 69.1722431,32.0037611 68.1071817,32.0037611 L64.6954054,32.0037611 L64.6954054,40.2861792 L65.2359912,40.2861792 L65.2359912,36.8010121 L67.9908305,36.8010121 L70.5953082,40.2271086 L70.6382687,40.2861792 L71.3113158,40.2861792 L68.6316573,36.7687918 C70.1728637,36.5933699 71.1162037,35.7055205 71.1162037,34.4095467 L71.1162037,34.4095467 Z" id="Fill-16" fill="#FFFFFF"></path>
                <polygon id="Fill-18" fill="#FFFFFF" points="78.8814854 39.7651047 73.4988981 39.7651047 73.4988981 36.3837587 78.3355296 36.3837587 78.3355296 35.8592831 73.4988981 35.8592831 73.4988981 32.5208976 78.8259948 32.5208976 78.8259948 32.0035821 72.9511523 32.0035821 72.9511523 40.2860002 78.8814854 40.2860002"></polygon>
                <path d="M81.6189615,37.3668372 L83.8206849,32.7629082 L86.0224084,37.3668372 L81.6189615,37.3668372 Z M83.6273629,31.9412894 L79.7376515,40.076926 L79.6392004,40.2863582 L80.2299067,40.2863582 L81.3665688,37.8913127 L86.2765911,37.8913127 L87.4168332,40.2863582 L88.0111195,40.2863582 L84.0247471,31.9412894 L83.6273629,31.9412894 Z" id="Fill-20" fill="#FFFFFF"></path>
                <polygon id="Fill-22" fill="#FFFFFF" points="90.219466 40.2860002 90.7654218 40.2860002 90.7654218 32.5208976 93.6509325 32.5208976 93.6509325 32.0035821 87.3339553 32.0035821 87.3339553 32.5208976 90.219466 32.5208976"></polygon>
                <polygon id="Fill-24" fill="#FFFFFF" points="94.9282901 40.2856422 95.4688759 40.2856422 95.4688759 32.0032241 94.9282901 32.0032241"></polygon>
                <polygon id="Fill-26" fill="#FFFFFF" points="100.548771 40.3384478 100.931835 40.3384478 104.694455 32.0041191 104.107329 32.0041191 100.743883 39.4881887 97.4198176 32.09183 97.3804372 32.0041191 96.7879409 32.0041191 100.511181 40.2543169"></polygon>
                <polygon id="Fill-27" fill="#FFFFFF" points="106.001348 40.2856422 106.545514 40.2856422 106.545514 32.0032241 106.001348 32.0032241"></polygon>
                <polygon id="Fill-28" fill="#FFFFFF" points="111.257381 40.2860002 111.257381 32.5208976 114.144682 32.5208976 114.144682 32.0035821 107.822334 32.0035821 107.822334 32.5208976 110.715005 32.5208976 110.715005 40.2860002"></polygon>
                <polygon id="Fill-29" fill="#FFFFFF" points="118.330104 40.2860002 118.330104 36.8420036 121.840332 32.0035821 121.185185 32.0035821 118.065181 36.3282681 114.968448 32.0590727 114.925488 32.0035821 114.264971 32.0035821 117.791308 36.8420036 117.791308 40.2860002"></polygon>
                <path d="M59.7349046,50.0052666 L56.6757621,50.0052666 L56.6757621,46.6901514 L59.5415826,46.6901514 C60.9145272,46.6901514 61.7719463,47.3238181 61.7719463,48.3620292 C61.7719463,49.572082 60.7158351,50.0052666 59.7349046,50.0052666 M59.7349046,53.9343584 L56.6757621,53.9343584 L56.6757621,50.5297422 L59.9300167,50.5297422 C60.9753878,50.5297422 62.1926008,50.9700869 62.1926008,52.2320503 L62.1926008,52.2499505 C62.1926008,53.3203819 61.3011713,53.9343584 59.7349046,53.9343584 M61.1561798,50.2075388 C61.8793475,49.8656452 62.3161121,49.1872279 62.3161121,48.3333888 C62.3161121,47.7534227 62.1245801,47.2719076 61.7558361,46.9013736 C61.2796911,46.4216485 60.518933,46.1692558 59.5523227,46.1692558 L56.1315963,46.1692558 L56.1315963,54.455254 L59.7349046,54.455254 C61.6162147,54.455254 62.7349766,53.6264752 62.7349766,52.2213102 C62.7349766,51.2815502 62.11921,50.5190021 61.1561798,50.2075388" id="Fill-30" fill="#FFFFFF"></path>
                <polygon id="Fill-31" fill="#FFFFFF" points="66.7831046 50.5016389 63.6810016 46.2324435 63.6362512 46.1697928 62.9793142 46.1697928 66.5002816 51.0082143 66.5002816 54.455791 67.0444474 54.455791 67.0444474 51.0082143 70.5528848 46.1697928 69.8995278 46.1697928"></polygon>
                <path d="M77.5302,49.9982856 C75.4716781,49.5794211 75.0707138,49.0442054 75.0707138,48.2404869 C75.0707138,47.4224482 75.8851725,46.5721891 77.252747,46.5721891 C78.3697189,46.5721891 79.221768,47.0447541 79.7462436,47.4349783 L79.8554347,47.5226892 L80.1973284,47.0930846 L80.0809771,47.0017937 C79.2736786,46.3824471 78.3052782,46.0584536 77.2760173,46.0584536 C75.7330209,46.0584536 74.526548,47.0161138 74.526548,48.2709172 C74.526548,49.47381 75.3248965,50.1003166 77.3673083,50.5156011 C79.4687906,50.9380456 79.8661749,51.4661012 79.8661749,52.3092002 C79.8661749,53.3402511 78.9210448,54.0508887 77.5624203,54.0508887 C76.4669287,54.0508887 75.464518,53.6373943 74.6572194,52.858736 L74.5551883,52.760285 L74.1631742,53.1487191 L74.2705753,53.2489602 C75.183485,54.1099593 76.309407,54.5682042 77.53378,54.5682042 C79.2271381,54.5682042 80.4085506,53.6373943 80.4085506,52.2769798 C80.4085506,51.0579768 79.6048321,50.41715 77.5302,49.9982856" id="Fill-32" fill="#FFFFFF"></path>
                <polygon id="Fill-33" fill="#FFFFFF" points="81.0123241 46.6908674 83.8996248 46.6908674 83.8996248 54.45597 84.4455806 54.45597 84.4455806 46.6908674 87.3328813 46.6908674 87.3328813 46.1699718 81.0123241 46.1699718"></polygon>
                <path d="M89.0743908,46.6908674 L91.9205211,46.6908674 C93.502898,46.6908674 94.4122276,47.3728646 94.4122276,48.5900776 C94.4122276,49.75717 93.4384573,50.4534874 91.8167,50.4534874 L89.0743908,50.4534874 L89.0743908,46.6908674 Z M94.9528134,48.5793375 L94.9528134,48.5614373 C94.9528134,47.9152404 94.7415911,47.3692846 94.3388369,46.9701103 C93.8143613,46.4420547 93.0034827,46.1699718 91.9455814,46.1699718 L88.5338051,46.1699718 L88.5338051,54.45597 L89.0743908,54.45597 L89.0743908,50.9708029 L91.8256501,50.9708029 L94.4301278,54.3968994 L94.4712983,54.45597 L95.1443454,54.45597 L92.468267,50.9350025 C94.0112634,50.7631607 94.9528134,49.8753113 94.9528134,48.5793375 L94.9528134,48.5793375 Z" id="Fill-34" fill="#FFFFFF"></path>
                <path d="M97.8077148,51.5330479 L100.007648,46.9255389 L102.207582,51.5330479 L97.8077148,51.5330479 Z M99.8125361,46.1146602 L95.9264048,54.2502968 L95.8279537,54.456149 L96.4079199,54.456149 L97.549952,52.0575235 L102.461764,52.0575235 L103.600216,54.456149 L104.198083,54.456149 L100.20813,46.1146602 L99.8125361,46.1146602 Z" id="Fill-35" fill="#FFFFFF"></path>
                <polygon id="Fill-36" fill="#FFFFFF" points="103.515191 46.6908674 106.402491 46.6908674 106.402491 54.45597 106.946657 54.45597 106.946657 46.6908674 109.833958 46.6908674 109.833958 46.1699718 103.515191 46.1699718"></polygon>
                <polygon id="Fill-37" fill="#FFFFFF" points="111.57851 50.5471054 116.416932 50.5471054 116.416932 50.0333699 111.57851 50.0333699 111.57851 46.6914044 116.909187 46.6914044 116.909187 46.1705088 111.034345 46.1705088 111.034345 54.460087 116.962888 54.460087 116.962888 53.9356115 111.57851 53.9356115"></polygon>
                <path d="M121.777144,50.697467 L124.725305,50.697467 L124.725305,53.0567121 C124.242,53.4558864 123.28255,54.0716529 122.033117,54.0716529 C119.695352,54.0716529 118.476349,52.1867628 118.476349,50.3054528 C118.476349,48.4599432 119.799173,46.5553629 122.018796,46.5553629 C123.135768,46.5553629 123.844616,46.934847 124.555253,47.5166032 L124.662655,47.6061041 L125.008128,47.1872396 L124.897147,47.0959487 C124.125649,46.4569119 123.352361,46.0362574 122.033117,46.0362574 C119.367778,46.0362574 117.932183,48.2397708 117.932183,50.3340931 C117.932183,52.8472799 119.614801,54.5925484 122.018796,54.5925484 C123.180519,54.5925484 124.318971,54.1378836 125.21935,53.3198449 L125.265891,53.2768844 L125.265891,50.1550912 L121.777144,50.1550912 L121.777144,50.697467 Z" id="Fill-38" fill="#FFFFFF"></path>
                <polygon id="Fill-39" fill="#FFFFFF" points="132.66762 46.1699718 129.554777 50.5018179 126.454464 46.2326225 126.411503 46.1699718 125.749196 46.1699718 129.273744 51.0083933 129.273744 54.45955 129.814329 54.45955 129.814329 51.0083933 133.324557 46.1699718"></polygon>
            </g>
        </g>
    </g>
</svg>