<?xml version="1.0" encoding="UTF-8" standalone="no"?>
<svg width="85px" height="84px" viewBox="0 0 85 84" version="1.1" xmlns="http://www.w3.org/2000/svg" xmlns:xlink="http://www.w3.org/1999/xlink">
    <!-- Generator: Sketch 39.1 (31720) - http://www.bohemiancoding.com/sketch -->
    <title>logo</title>
    <desc>Created with Sketch.</desc>
    <defs></defs>
    <g id="Page-1" stroke="none" stroke-width="1" fill="none" fill-rule="evenodd">
        <g id="logo" transform="translate(0.000000, -0.720000)">
            <path d="M80.9268,84.5225 L4.2508,84.5225 C2.3668,84.5225 0.8268,82.9835 0.8268,81.0965 L0.8268,4.4185 C0.8268,2.5345 2.3668,0.9925 4.2508,0.9925 L80.9268,0.9925 C82.8138,0.9925 84.3568,2.5345 84.3568,4.4185 L84.3568,81.0965 C84.3568,82.9835 82.8138,84.5225 80.9268,84.5225" id="Fill-40" fill="#FFFFFF"></path>
            <path d="M27.0342,41.9482 C25.1012,44.5042 21.8552,45.9152 18.6772,45.8812 C13.0342,45.8492 8.1842,41.1602 8.3152,34.9622 C8.3152,29.9802 12.0542,25.4232 17.0692,24.4712 C17.5592,24.4072 18.1822,24.3762 18.7722,24.3762 C21.6262,24.3762 24.6752,25.3562 26.4772,27.4562 C27.4622,28.6042 25.7892,30.1772 24.7742,28.9972 C22.9382,26.8672 19.8892,26.1122 17.4302,26.7342 C13.8232,27.5862 10.6762,30.7662 10.6762,35.0632 C10.7432,39.6852 14.4792,43.5532 18.7082,43.6522 C21.1342,43.6862 23.6572,42.6352 25.1012,40.7002 L25.1012,36.3422 L19.2002,36.3422 C17.6592,36.3422 17.8232,34.1762 19.2002,34.1762 L26.1512,34.1762 C27.1022,34.1762 27.3962,34.6692 27.3962,35.3902 L27.3962,40.8642 C27.3962,41.2252 27.3302,41.6512 27.0342,41.9482" id="Fill-41" fill="#181E23"></path>
            <path d="M30.124,29.9805 C30.124,28.5705 32.52,28.5375 32.52,29.9485 L32.52,44.7335 C32.52,46.1765 30.124,46.1435 30.124,44.7335 L30.124,29.9805 Z" id="Fill-42" fill="#181E23"></path>
            <path d="M44.2217,28.8975 C45.6987,28.8975 45.6987,30.9635 44.2217,30.9635 L40.6477,30.9635 L40.6477,39.8155 C40.6477,41.6845 40.9447,43.6525 43.1727,43.6525 C43.6647,43.6525 44.3857,43.4875 44.7137,43.2925 C46.0907,42.5055 47.1737,44.4385 45.6987,45.2585 C44.8777,45.7175 44.0587,45.8155 43.1727,45.8155 C39.2387,45.8155 38.2877,42.9315 38.2877,39.8155 L38.2877,30.9635 L36.1227,30.9635 C34.5847,30.9635 34.6807,28.8975 36.1227,28.8975 L38.2877,28.8975 L38.2877,25.0945 C38.2877,23.5225 40.6477,23.5535 40.6477,25.0945 L40.6477,28.8975 L44.2217,28.8975 Z" id="Fill-43" fill="#181E23"></path>
            <polygon id="Fill-44" fill="#FF4527" points="49.0088 72.7002 40.7178 72.7002 49.0048 64.2962"></polygon>
            <path d="M49.0088,64.0605 C49.0088,68.8345 45.1418,72.7005 40.3698,72.7005 C35.5988,72.7005 31.7308,68.8345 31.7308,64.0605 C31.7308,59.2915 35.5988,55.4225 40.3698,55.4225 C45.1418,55.4225 49.0088,59.2915 49.0088,64.0605" id="Fill-45" fill="#FF4527"></path>
            <path d="M44.8564,64.0605 C44.8564,66.5375 42.8464,68.5465 40.3704,68.5465 C37.8934,68.5465 35.8834,66.5375 35.8834,64.0605 C35.8834,61.5835 37.8934,59.5745 40.3704,59.5745 C42.8464,59.5745 44.8564,61.5835 44.8564,64.0605" id="Fill-46" fill="#FFFFFF"></path>
            <polygon id="Fill-47" fill="#FF4527" points="50.958 78.7295 64.31 71.3505 50.958 64.4935"></polygon>
            <path d="M50.958,64.1064 C50.958,68.8774 54.823,72.7474 59.597,72.7474 C64.366,72.7474 68.235,68.8774 68.235,64.1064 C68.235,59.3344 64.366,55.4664 59.597,55.4664 C54.823,55.4664 50.958,59.3344 50.958,64.1064" id="Fill-48" fill="#FF4527"></path>
            <path d="M64.1377,64.1064 C64.1377,66.6154 62.1037,68.6454 59.5967,68.6454 C57.0867,68.6454 55.0557,66.6154 55.0557,64.1064 C55.0557,61.5994 57.0867,59.5654 59.5967,59.5654 C62.1037,59.5654 64.1377,61.5994 64.1377,64.1064" id="Fill-49" fill="#FFFFFF"></path>
            <path d="M7.6162,72.7168 L9.6772,55.8718 C10.0052,53.2158 10.9612,51.4538 13.3522,51.4538 C15.3232,51.4538 16.7552,52.5298 17.2042,54.5578 L19.4432,64.4458 L19.5032,64.4458 L21.6822,54.5578 C22.1322,52.5298 23.5632,51.4538 25.5342,51.4538 C27.9252,51.4538 28.8822,53.2158 29.2062,55.8718 L31.2672,72.7168 L26.5202,72.7168 L25.0562,56.5298 L24.9992,56.5298 L21.2062,71.5808 C20.9362,72.6568 20.3992,72.8928 19.2932,72.8928 C18.1892,72.8928 17.6202,72.6568 17.3822,71.5808 L13.9172,56.5298 L13.8582,56.5298 L12.2462,72.7168 L7.6162,72.7168 Z" id="Fill-50" fill="#FF4527"></path>
            <path d="M32.9053,25.5107 C32.9053,26.3857 32.1973,27.0947 31.3213,27.0947 C30.4473,27.0947 29.7373,26.3857 29.7373,25.5107 C29.7373,24.6357 30.4473,23.9267 31.3213,23.9267 C32.1973,23.9267 32.9053,24.6357 32.9053,25.5107" id="Fill-51" fill="#181E23"></path>
        </g>
    </g>
</svg>